<?xml version="1.0" encoding="utf-8"?>
<!-- Generator: Adobe Illustrator 24.1.1, SVG Export Plug-In . SVG Version: 6.00 Build 0)  -->
<svg version="1.1" id="Layer_1" xmlns="http://www.w3.org/2000/svg" xmlns:xlink="http://www.w3.org/1999/xlink" x="0px" y="0px"
	 viewBox="0 0 290 290" style="enable-background:new 0 0 290 290;" xml:space="preserve">
<style type="text/css">
	.st0{fill:#F7C7B7;}
	.st1{filter:url(#Adobe_OpacityMaskFilter);}
	.st2{fill-rule:evenodd;clip-rule:evenodd;fill:#FFFFFF;}
	.st3{mask:url(#b_1_);fill:#E86046;}
	.st4{filter:url(#Adobe_OpacityMaskFilter_1_);}
	.st5{opacity:7.800000e-02;mask:url(#d_1_);enable-background:new    ;}
</style>
<g>
	<circle class="st0" cx="145" cy="145" r="145"/>
	<defs>
		<filter id="Adobe_OpacityMaskFilter" filterUnits="userSpaceOnUse" x="-10" y="13" width="267" height="264">
			<feColorMatrix  type="matrix" values="1 0 0 0 0  0 1 0 0 0  0 0 1 0 0  0 0 0 1 0"/>
		</filter>
	</defs>
	<mask maskUnits="userSpaceOnUse" x="-10" y="13" width="267" height="264" id="b_1_">
		<g class="st1">
			<circle id="a_1_" class="st2" cx="145" cy="145" r="145"/>
		</g>
	</mask>
	<path class="st3" d="M154,253c6.6,0,12,5.4,12,12s-5.4,12-12,12h-20c-6.6,0-12-5.4-12-12s5.4-12,12-12H154z M240,205
		c6.6,0,12,5.4,12,12s-5.4,12-12,12h-62c-6.6,0-12-5.4-12-12s5.4-12,12-12H240z M130,205c6.6,0,12,5.4,12,12s-5.4,12-12,12
		s-12-5.4-12-12S123.4,205,130,205z M85,145c0-6.6-5.4-12-12-12H2c-6.6,0-12-5.4-12-12s5.4-12,12-12h49c6.6,0,12-5.4,12-12
		s-5.4-12-12-12h-5c-6.6,0-12-5.4-12-12s5.4-12,12-12h73c6.6,0,12,5.4,12,12s-5.4,12-12,12H99v0c-6.4,0.3-11.5,5.5-11.5,12
		s5.1,11.7,11.5,12v0h45c6.6,0,12,5.4,12,12s-5.4,12-12,12h-2l0,0c-6.4,0.3-11.5,5.5-11.5,12s5.1,11.7,11.5,12l0,0h52
		c6.6,0,12,5.4,12,12s-5.4,12-12,12H70c-6.6,0-12-5.4-12-12s5.4-12,12-12h3C79.6,157,85,151.6,85,145z M245,157c6.6,0,12,5.4,12,12
		s-5.4,12-12,12s-12-5.4-12-12S238.4,157,245,157z M22,157c6.6,0,12,5.4,12,12s-5.4,12-12,12H2c-6.6,0-12-5.4-12-12s5.4-12,12-12H22
		z M221,61c6.6,0,12,5.4,12,12s-5.4,12-12,12h-20c-6.6,0-12-5.4-12-12s5.4-12,12-12H221z M245,13c6.6,0,12,5.4,12,12s-5.4,12-12,12
		h-58c-6.6,0-12-5.4-12-12s5.4-12,12-12H245z"/>
	<defs>
		<filter id="Adobe_OpacityMaskFilter_1_" filterUnits="userSpaceOnUse" x="146" y="0" width="145" height="290">
			<feColorMatrix  type="matrix" values="1 0 0 0 0  0 1 0 0 0  0 0 1 0 0  0 0 0 1 0"/>
		</filter>
	</defs>
	<mask maskUnits="userSpaceOnUse" x="146" y="0" width="145" height="290" id="d_1_">
		<g class="st4">
			<circle id="c_1_" class="st2" cx="145" cy="145" r="145"/>
		</g>
	</mask>
	<path class="st5" d="M146,0h145v290H146V0z"/>
</g>
</svg>
